<mxfile host="app.diagrams.net" modified="2021-08-23T12:53:52.806Z" agent="5.0 (Windows NT 10.0; Win64; x64) AppleWebKit/537.36 (KHTML, like Gecko) Chrome/92.0.4515.131 Safari/537.36 Edg/92.0.902.73" etag="HqJdQYuHOJ54TVvNp3YA" version="14.9.8" type="github">
  <diagram id="VHoYQdjhY6s8SYZpucpT" name="Page-1">
    <mxGraphModel dx="2770" dy="1323" grid="1" gridSize="10" guides="1" tooltips="1" connect="1" arrows="1" fold="1" page="1" pageScale="1" pageWidth="850" pageHeight="1100" math="0" shadow="0">
      <root>
        <mxCell id="0" />
        <mxCell id="1" parent="0" />
        <mxCell id="12wSddLCUSlk-l1D3lct-1" value="User" style="html=1;strokeColor=none;fillColor=#0079D6;labelPosition=center;verticalLabelPosition=middle;verticalAlign=top;align=center;fontSize=12;outlineConnect=0;spacingTop=-6;fontColor=#FFFFFF;shape=mxgraph.sitemap.user;" parent="1" vertex="1">
          <mxGeometry x="280" y="416" width="120" height="70" as="geometry" />
        </mxCell>
        <mxCell id="vi5RU4xkZmoM3SFDAaO4-4" value="" style="group" vertex="1" connectable="0" parent="1">
          <mxGeometry x="630" y="110" width="270" height="80.5" as="geometry" />
        </mxCell>
        <mxCell id="12wSddLCUSlk-l1D3lct-5" value="Security &amp;amp; geovernance" style="rounded=0;whiteSpace=wrap;html=1;fillColor=#f5f5f5;strokeColor=#666666;fontColor=#333333;" parent="vi5RU4xkZmoM3SFDAaO4-4" vertex="1">
          <mxGeometry width="270" height="80.5" as="geometry" />
        </mxCell>
        <mxCell id="12wSddLCUSlk-l1D3lct-6" value="Azure AD" style="verticalLabelPosition=bottom;html=1;verticalAlign=top;align=center;strokeColor=none;fillColor=#00BEF2;shape=mxgraph.azure.azure_active_directory;" parent="vi5RU4xkZmoM3SFDAaO4-4" vertex="1">
          <mxGeometry x="8" y="3" width="47.5" height="50" as="geometry" />
        </mxCell>
        <mxCell id="12wSddLCUSlk-l1D3lct-7" value="Key Vault" style="aspect=fixed;html=1;points=[];align=center;image;fontSize=12;image=img/lib/azure2/security/Key_Vaults.svg;" parent="vi5RU4xkZmoM3SFDAaO4-4" vertex="1">
          <mxGeometry x="211" y="6" width="47" height="47" as="geometry" />
        </mxCell>
        <mxCell id="vi5RU4xkZmoM3SFDAaO4-5" value="" style="group" vertex="1" connectable="0" parent="1">
          <mxGeometry x="623" y="399" width="100" height="106" as="geometry" />
        </mxCell>
        <mxCell id="12wSddLCUSlk-l1D3lct-4" value="Bot UX" style="rounded=0;whiteSpace=wrap;html=1;fillColor=#f5f5f5;strokeColor=#666666;fontColor=#333333;verticalAlign=top;" parent="vi5RU4xkZmoM3SFDAaO4-5" vertex="1">
          <mxGeometry width="100" height="106" as="geometry" />
        </mxCell>
        <mxCell id="12wSddLCUSlk-l1D3lct-2" value="Bot Service" style="aspect=fixed;html=1;points=[];align=center;image;fontSize=12;image=img/lib/azure2/ai_machine_learning/Bot_Services.svg;" parent="vi5RU4xkZmoM3SFDAaO4-5" vertex="1">
          <mxGeometry x="30" y="36" width="40" height="40" as="geometry" />
        </mxCell>
        <mxCell id="vi5RU4xkZmoM3SFDAaO4-6" value="" style="group" vertex="1" connectable="0" parent="1">
          <mxGeometry x="733" y="397" width="167" height="108" as="geometry" />
        </mxCell>
        <mxCell id="12wSddLCUSlk-l1D3lct-19" value="Bot logic" style="rounded=0;whiteSpace=wrap;html=1;fillColor=#f5f5f5;strokeColor=#666666;fontColor=#333333;verticalAlign=top;" parent="vi5RU4xkZmoM3SFDAaO4-6" vertex="1">
          <mxGeometry width="167" height="108" as="geometry" />
        </mxCell>
        <mxCell id="12wSddLCUSlk-l1D3lct-3" value="Bot Web App" style="aspect=fixed;html=1;points=[];align=center;image;fontSize=12;image=img/lib/azure2/compute/App_Services.svg;" parent="vi5RU4xkZmoM3SFDAaO4-6" vertex="1">
          <mxGeometry x="30" y="30" width="40" height="40" as="geometry" />
        </mxCell>
        <mxCell id="vi5RU4xkZmoM3SFDAaO4-1" value="" style="aspect=fixed;html=1;points=[];align=center;image;fontSize=12;image=img/lib/azure2/networking/Private_Endpoint.svg;" vertex="1" parent="vi5RU4xkZmoM3SFDAaO4-6">
          <mxGeometry x="100" y="32.78999999999999" width="55" height="50.42" as="geometry" />
        </mxCell>
        <mxCell id="vi5RU4xkZmoM3SFDAaO4-7" value="" style="group" vertex="1" connectable="0" parent="1">
          <mxGeometry x="620" y="577" width="280" height="130" as="geometry" />
        </mxCell>
        <mxCell id="12wSddLCUSlk-l1D3lct-10" value="Bot cognition &amp;amp; intelligence" style="rounded=0;whiteSpace=wrap;html=1;fillColor=#f5f5f5;strokeColor=#666666;fontColor=#333333;verticalAlign=top;" parent="vi5RU4xkZmoM3SFDAaO4-7" vertex="1">
          <mxGeometry width="280" height="130" as="geometry" />
        </mxCell>
        <mxCell id="12wSddLCUSlk-l1D3lct-11" value="LIUS" style="aspect=fixed;html=1;points=[];align=center;image;fontSize=12;image=img/lib/azure2/ai_machine_learning/Cognitive_Services.svg;" parent="vi5RU4xkZmoM3SFDAaO4-7" vertex="1">
          <mxGeometry x="13" y="34.5" width="68" height="48" as="geometry" />
        </mxCell>
        <mxCell id="12wSddLCUSlk-l1D3lct-12" value="QnA Maker" style="shape=image;html=1;verticalAlign=top;verticalLabelPosition=bottom;labelBackgroundColor=#ffffff;imageAspect=0;aspect=fixed;image=https://cdn1.iconfinder.com/data/icons/google_jfk_icons_by_carlosjj/128/qna.png" parent="vi5RU4xkZmoM3SFDAaO4-7" vertex="1">
          <mxGeometry x="103" y="29.5" width="58" height="58" as="geometry" />
        </mxCell>
        <mxCell id="12wSddLCUSlk-l1D3lct-13" value="Azure Search" style="aspect=fixed;html=1;points=[];align=center;image;fontSize=12;image=img/lib/mscae/Search.svg;" parent="vi5RU4xkZmoM3SFDAaO4-7" vertex="1">
          <mxGeometry x="203" y="39.5" width="50" height="50" as="geometry" />
        </mxCell>
        <mxCell id="vi5RU4xkZmoM3SFDAaO4-8" value="" style="group" vertex="1" connectable="0" parent="1">
          <mxGeometry x="690" y="870" width="120" height="110" as="geometry" />
        </mxCell>
        <mxCell id="12wSddLCUSlk-l1D3lct-8" value="Logging" style="rounded=0;whiteSpace=wrap;html=1;fillColor=#f5f5f5;strokeColor=#666666;fontColor=#333333;verticalAlign=top;" parent="vi5RU4xkZmoM3SFDAaO4-8" vertex="1">
          <mxGeometry width="120" height="110" as="geometry" />
        </mxCell>
        <mxCell id="12wSddLCUSlk-l1D3lct-9" value="Application Insight" style="aspect=fixed;html=1;points=[];align=center;image;fontSize=12;image=img/lib/azure2/devops/Application_Insights.svg;" parent="vi5RU4xkZmoM3SFDAaO4-8" vertex="1">
          <mxGeometry x="46.02999999999997" y="35" width="27.94" height="40" as="geometry" />
        </mxCell>
        <mxCell id="vi5RU4xkZmoM3SFDAaO4-9" value="" style="group" vertex="1" connectable="0" parent="1">
          <mxGeometry x="985.25" y="486" width="120" height="190" as="geometry" />
        </mxCell>
        <mxCell id="12wSddLCUSlk-l1D3lct-17" value="Cloud &amp;amp; Online DB" style="rounded=0;whiteSpace=wrap;html=1;fillColor=#f5f5f5;strokeColor=#666666;fontColor=#333333;verticalAlign=top;" parent="vi5RU4xkZmoM3SFDAaO4-9" vertex="1">
          <mxGeometry width="120" height="190" as="geometry" />
        </mxCell>
        <mxCell id="12wSddLCUSlk-l1D3lct-18" value="Azure Synapse" style="aspect=fixed;html=1;points=[];align=center;image;fontSize=12;image=img/lib/azure2/analytics/Azure_Synapse_Analytics.svg;" parent="vi5RU4xkZmoM3SFDAaO4-9" vertex="1">
          <mxGeometry x="38.700000000000045" y="100" width="42.61" height="49" as="geometry" />
        </mxCell>
        <mxCell id="vi5RU4xkZmoM3SFDAaO4-3" value="" style="aspect=fixed;html=1;points=[];align=center;image;fontSize=12;image=img/lib/azure2/databases/Azure_SQL.svg;" vertex="1" parent="vi5RU4xkZmoM3SFDAaO4-9">
          <mxGeometry x="28" y="40" width="64" height="46" as="geometry" />
        </mxCell>
        <mxCell id="vi5RU4xkZmoM3SFDAaO4-10" value="" style="group" vertex="1" connectable="0" parent="1">
          <mxGeometry x="985.25" y="250" width="120" height="200.5" as="geometry" />
        </mxCell>
        <mxCell id="12wSddLCUSlk-l1D3lct-14" value="On Prem Data Sources" style="rounded=0;whiteSpace=wrap;html=1;fillColor=#f5f5f5;strokeColor=#666666;fontColor=#333333;verticalAlign=top;" parent="vi5RU4xkZmoM3SFDAaO4-10" vertex="1">
          <mxGeometry width="120" height="200.5" as="geometry" />
        </mxCell>
        <mxCell id="12wSddLCUSlk-l1D3lct-15" value="SAP HANA DB" style="pointerEvents=1;shadow=0;dashed=0;html=1;strokeColor=none;fillColor=#DF8C42;labelPosition=center;verticalLabelPosition=bottom;verticalAlign=top;align=center;outlineConnect=0;shape=mxgraph.veeam2.sap_hana_db;" parent="vi5RU4xkZmoM3SFDAaO4-10" vertex="1">
          <mxGeometry x="43" y="39" width="34" height="34" as="geometry" />
        </mxCell>
        <mxCell id="12wSddLCUSlk-l1D3lct-16" value="SQL Server DB" style="aspect=fixed;perimeter=ellipsePerimeter;html=1;align=center;shadow=0;dashed=0;spacingTop=3;image;image=img/lib/active_directory/sql_server.svg;" parent="vi5RU4xkZmoM3SFDAaO4-10" vertex="1">
          <mxGeometry x="40.75" y="107" width="38.5" height="50" as="geometry" />
        </mxCell>
      </root>
    </mxGraphModel>
  </diagram>
</mxfile>
